<svg id="Layer_1" data-name="Layer 1" xmlns="http://www.w3.org/2000/svg" width="200" height="200" viewBox="0 0 200 200"><defs><style>.cls-1{fill:#333;}.cls-2{fill:#d8d8d8;}.cls-3{fill:#343434;}.cls-4{fill:#d5d5d5;}.cls-5{fill:#fefefe;}.cls-6{fill:#9f9f9f;}.cls-7{fill:#dadada;}.cls-8{fill:#d9d9d9;}.cls-9{fill:#a0a0a0;}.cls-10{fill:#9d9d9d;}.cls-11{fill:#828282;}.cls-12{fill:#d7d7d7;}.cls-13{fill:#acacac;}.cls-14{fill:#888;}.cls-15{fill:#ababab;}.cls-16{fill:#949494;}.cls-17{fill:#9b9b9b;}.cls-18{fill:#a7a7a7;}.cls-19{fill:#efefef;}.cls-20{fill:#8f8f8f;}.cls-21{fill:#787878;}.cls-22{fill:#fafafa;}.cls-23{fill:#ececec;}.cls-24{fill:#a6e1b4;}.cls-25{fill:#353535;}.cls-26{fill:#373737;}.cls-27{fill:#fdfdfd;}.cls-28{fill:#fcfcfc;}.cls-29{fill:#e9e9e9;}.cls-30{fill:#def4e2;}</style></defs><title>Artboard 1</title><path class="cls-1" d="M68.73,97.79h8.49A5.49,5.49,0,0,0,79.5,98h43.36a11,11,0,0,1,2.3.09,20.91,20.91,0,0,1,13.89,9.32c2.52,2.43,2.83,5.67,3,8.85.2,3.89,0,7.8.07,12.11,2-1.81,3.6-3.58,5.33-5.22.74-.7,1.31-1.66,2.49-1.76,6.14-6.09,12.37-12.09,18.38-18.31,2.94-3,2.93-8.1.46-11.65a9.55,9.55,0,0,0-11.49-3.5c-5.61,2.43-11.1,5.16-16.71,7.79,2.07,2.15,4,4.26,6.07,6.26,1,1,2.5.92,3.8.74,4.26-.6,6.39,2.47,8.85,5a1,1,0,0,1,0,1.5,1.16,1.16,0,0,1-1.7,0,29.33,29.33,0,0,1-2.4-2.33,5,5,0,0,0-4.44-1.89c-3.28.33-6-.56-8-3.34-.61-.84-1.54-1.43-2.19-2.25-1.51-1.89-3.15-2.81-5.44-1.23a1.22,1.22,0,0,1-1.93-.68c-.35-.8.27-1.15,1-1.48,7.33-3.43,14.53-7.16,22-10.28,4.63-1.94,9.22-.89,13,2.64,1.38,1.28,2.65,2.68,4,4a12,12,0,0,1,.4,17.43c-8.73,8.94-17.64,17.7-26.49,26.53a8.93,8.93,0,0,1-1.16.86c-2.42,1.7-5,3.05-6.25,6.15-1,2.37-3.65,2.89-6.18,3-.79,0-1.78-.61-2.38.46a29.74,29.74,0,0,1,0,5.42v.44c2.17.55,4.41-.06,6.59.34,9.69,1.38,15.7,7.38,16.88,16.86a6.32,6.32,0,0,1,0,2.49,19.55,19.55,0,0,1-8,13.91c.27,1.09,1.14.52,1.71.54,4.72.11,9.45-.12,14.18.14.95,1.5.47,2.19-1.24,2.18H25.05c-1.59,0-2.91,0-1.75-2.16,3.95-.34,7.92-.13,11.87-.1,1.37,0,2.73-.71,4.36,0a14.16,14.16,0,0,1-7-8.21,23,23,0,0,1,0-15.16c.75-2.42,2.61-4.27,3.38-6.67q0-16.62.07-33.24c0-4.14.91-7.84,3.83-11.09a14.84,14.84,0,0,1,11.32-5c5.57-.12,11.15,0,16.72,0,5.88,0,8.72,2.46,9.61,8.31a4.11,4.11,0,0,1,.54,1.78c.13,7.94.61,15.91-3,23.39-1.07,2.21-.9,2.22,1.5,2.32,1.85.07,3.77-.47,5.54.53l8.78,0a1.74,1.74,0,0,0,.21-1.2q0-13,0-26.06a2,2,0,0,0-.18-1.21c-1.1-7.73-5.7-12.35-13-14.59a11.52,11.52,0,0,0-3.22-.32c-4.79,0-9.6-.5-14.38.23a15.43,15.43,0,0,0-7.13,3.09c-.5.38-1.41,1-1.89.28a1.64,1.64,0,0,1,.59-2.45,22,22,0,0,1,8.81-3.46C63.34,97.75,66.05,98.25,68.73,97.79Z"/><path class="cls-1" d="M35.5,64.74a3.79,3.79,0,0,1-3.44-3,6.8,6.8,0,0,1,0-2.91,3.78,3.78,0,0,1,3.44-3,3.83,3.83,0,0,1,2.07,0,6.34,6.34,0,0,1,3.28,3,6,6,0,0,0,3.36,0,29,29,0,0,0,.11-4.36A4,4,0,0,1,48.71,50c1.45.19,2.16-.16,2.92-1.85,5-11.2,13.45-18.17,25.78-20,.69-.28,1.47.13,2.13-.3h29.27c.65.45,1.42,0,2.1.3,7.4,1.28,13.93,4.32,19.12,9.83,6.44,6.85,9.6,15.07,8.88,24.44-.95,12.24-7.15,21.26-18,27a33.68,33.68,0,0,1-10,3.1c-.68.26-1.45-.15-2.1.3H79.54c-.66-.43-1.44,0-2.13-.3a32.62,32.62,0,0,1-26-21c-.45-1.37-1.55-1-2.4-.91a4,4,0,0,1-4.61-4.64c.1-.66-.39-1.62.92-1.68,1.12,0,1.48.54,1.46,1.54a2.84,2.84,0,0,0,0,.41A1.72,1.72,0,0,0,48.54,68a1.79,1.79,0,0,0,2.1-1.54,44.13,44.13,0,0,0,0-12.52,1.87,1.87,0,0,0-2.33-1.51,1.71,1.71,0,0,0-1.56,1.88c0,1,0,2.09,0,3.14s0,1.68,1.44,1.81,1.32,1.23.29,2.11c-2.53.33-5.09-.19-7.61.28a6.38,6.38,0,0,1-3.28,3A3.93,3.93,0,0,1,35.5,64.74Z"/><path class="cls-2" d="M82,143.79H73.32c.73-2.08,1.34-4.07,2.12-6a27.65,27.65,0,0,0,2-11.19c-.08-3.62,0-7.23,0-10.85,2.77.94,5.14,2.32,5.85,5.47q.42,8.79,0,17.57C82.88,140.47,82.45,142.13,82,143.79Z"/><path class="cls-3" d="M152,55.78c3.47,2,4.3,4.48,2.49,7.17-.63.94-1.7,1.13-2.49,1.76a3.74,3.74,0,0,1-2.07,0,3.54,3.54,0,0,1-3.12-2.27c-.19-.49-.43-.87-1.05-.73s-.42.78-.44,1.2c0,1,0,2.09,0,3.14a4.72,4.72,0,0,1-5.41,4.47,1.33,1.33,0,0,1-1.2-1.14c-.22-.67.56-.93,1-1.11C143,67,143,67,143,63.6c0-2.64,0-5.29,0-7.94,0-2-.67-3.28-2.87-3.39-.71,0-1.51-.37-1.44-1.16s.65-1.15,1.59-1.17a4.61,4.61,0,0,1,5,4.65c0,1,0,2.1,0,3.14,0,.48-.39,1.27.4,1.39.59.08.86-.59,1.07-1.11a3.59,3.59,0,0,1,3.13-2.25A3.74,3.74,0,0,1,152,55.78Z"/><path class="cls-4" d="M149.93,121.36l-8.48,7.9c-.23-.13.1-.75.09-1.24,0-4.1,0-8.2-.07-12.31a20.75,20.75,0,0,0-2.42-8.33C144.4,108.7,149.75,115.58,149.93,121.36Z"/><path class="cls-5" d="M125.16,98.06,79.71,98c-.83,0-1.66-.12-2.49-.18l46.56,0A1.83,1.83,0,0,1,125.16,98.06Z"/><path class="cls-6" d="M32.52,178.68c2.18,3.36,4.44,6.63,8.17,8.55-5.84-.59-11.62,0-17.39-.26,1.07-.75,2.28-.33,3.41-.35,3.38-.07,6.75,0,10.64,0C34.85,184.13,32.69,182,32.52,178.68Z"/><path class="cls-5" d="M90.84,115.28a8.48,8.48,0,0,1,.32,2.88c0,8,0,15.93,0,23.89,0,.56.38,1.25-.33,1.7Z"/><path class="cls-7" d="M138.62,40.35c-.85-.21-2.39.51-2.42-1.06s1.35-1.46,2.51-1.46,2.56-.14,2.48,1.4S139.68,40.28,138.62,40.35Z"/><path class="cls-8" d="M135,32.73a1,1,0,0,1-.88-.77,2.18,2.18,0,0,1,.67-2.25c.72-.72,1.43-1.33,2.53-1.06a1,1,0,0,1,.83.83C138.25,30.23,135.74,32.81,135,32.73Z"/><path class="cls-8" d="M128.57,29.42c-.57.9-1.26,1.21-2.16.42a10.23,10.23,0,0,1,0-4.16c.9-.77,1.58-.46,2.15.42A6.91,6.91,0,0,1,128.57,29.42Z"/><path class="cls-5" d="M83.3,138.81V121.24a2.78,2.78,0,0,1,.37.93q0,7.86,0,15.71A2.78,2.78,0,0,1,83.3,138.81Z"/><path class="cls-5" d="M162.46,186.94c-4.9,0-9.81-.07-14.71-.13-.51,0-1.08.25-1.55-.18a.22.22,0,0,1,0-.19,1.83,1.83,0,0,1,.34-.18c1,.68,2,.31,3,.33,3.62,0,7.24,0,10.86,0C161.14,186.62,161.86,186.41,162.46,186.94Z"/><path class="cls-9" d="M35.9,156.85a3.57,3.57,0,0,1-1,3.19c-.86,1.12-1.61,2.31-2.41,3.48A10.78,10.78,0,0,1,35.9,156.85Z"/><path class="cls-5" d="M68.73,97.79l-8.08.27C63.33,97.41,66,97.88,68.73,97.79Z"/><path class="cls-5" d="M40.85,61.68c2.51-.72,5.08-.08,7.61-.28C46,62.09,43.39,61.55,40.85,61.68Z"/><path class="cls-5" d="M137.74,153c-2.19-.18-4.43.42-6.59-.34C133.34,152.86,135.58,152.24,137.74,153Z"/><path class="cls-5" d="M131.16,152.22c0-1.8,0-3.61,0-5.42A9.7,9.7,0,0,1,131.16,152.22Z"/><path class="cls-5" d="M126.41,25.68v4.16A4.92,4.92,0,0,1,126.41,25.68Z"/><path class="cls-5" d="M44.21,58.78a3.78,3.78,0,0,1-3.36,0Z"/><path class="cls-5" d="M128.57,29.42c0-1.11,0-2.21,0-3.32A3.24,3.24,0,0,1,128.57,29.42Z"/><path class="cls-5" d="M32.06,58.79V61.7A2.86,2.86,0,0,1,32.06,58.79Z"/><path class="cls-5" d="M154.61,172.35c0-.83,0-1.66,0-2.49A2.27,2.27,0,0,1,154.61,172.35Z"/><path class="cls-5" d="M144.86,22.74v2.08A1.43,1.43,0,0,1,144.86,22.74Z"/><path class="cls-5" d="M79.54,27.78a4.55,4.55,0,0,1-2.13.3C78.06,27.53,78.83,27.84,79.54,27.78Z"/><path class="cls-5" d="M110.91,28.07a4.56,4.56,0,0,1-2.1-.3C109.51,27.84,110.27,27.54,110.91,28.07Z"/><path class="cls-5" d="M108.81,92.72a4.43,4.43,0,0,1,2.1-.3C110.27,93,109.51,92.65,108.81,92.72Z"/><path class="cls-5" d="M77.41,92.41a4.55,4.55,0,0,1,2.13.3C78.83,92.65,78.06,93,77.41,92.41Z"/><path class="cls-5" d="M149.92,64.73l2.07,0A1.59,1.59,0,0,1,149.92,64.73Z"/><path class="cls-5" d="M37.57,55.78l-2.07,0A1.6,1.6,0,0,1,37.57,55.78Z"/><path class="cls-5" d="M35.5,64.74l2.07,0A1.6,1.6,0,0,1,35.5,64.74Z"/><path class="cls-5" d="M152,55.78l-2.07,0A1.58,1.58,0,0,1,152,55.78Z"/><path class="cls-5" d="M83.72,100.27h37.41c10.87,0,17.88,6.77,18.06,17.59.11,6.63.06,13.26,0,19.89,0,4.18-2,6.16-6.19,6.16-12.63,0-25.27,0-37.9,0-1.36,0-1.76-.35-1.75-1.73.07-7.82-.11-15.64.08-23.45S90.72,104.92,83.72,100.27Z"/><path class="cls-5" d="M68.6,124.13c1.1,5.85-1.44,12.16-3.81,18.51a1.73,1.73,0,0,1-2,1.31c-2.44-.08-4.88,0-7.32,0a5.45,5.45,0,0,0-4.64,2A7.72,7.72,0,0,1,43.13,149a6,6,0,0,0-1.46,0,1.12,1.12,0,0,0-1.13,1.25,1.08,1.08,0,0,0,1.1,1c3.53.08,7.22.65,9.81-2.7a5.78,5.78,0,0,1,5.48-2.32,42,42,0,0,0,5,0c.93,0,1.5.07,1.06,1.25-2,5.42-3.81,10.91-6,16.26a9.54,9.54,0,0,1-11.18,5.58,9.78,9.78,0,0,1-7.44-9.45q0-18.74,0-37.47a12.77,12.77,0,0,1,12.3-12.6c4-.1,8-.06,11.93,0a5.8,5.8,0,0,1,5.93,6C68.64,118.22,68.6,120.59,68.6,124.13Z"/><path class="cls-10" d="M125.41,186.5c11-7.58,11-23-.34-31,6.07.37,11.71-1,17.15,1,6.77,2.51,10.49,9,9.84,16.71-.51,6.12-5.83,12.34-12.22,13.19C135.19,187,130.39,186.5,125.41,186.5Z"/><path class="cls-10" d="M92.54,187.1c10.56-5.69,14.16-21.57,1.38-31.45,4.75,0,9.44-.45,14,.1,7.38.9,13.08,8.58,12.62,16.18-.48,7.84-6.92,14.44-14.51,14.77-2.58.11-5.17.07-7.75,0a14,14,0,0,0-5.34.79C92.52,187.66,92.44,187.47,92.54,187.1Z"/><path class="cls-2" d="M105.73,153c-6.77,0-13.54-.06-20.31,0-1.93,0-2.77-.42-2.68-2.55.19-4.81-.53-4.18,4.31-4.19,13,0,26.1,0,39.15-.05,2,0,2.65.62,2.61,2.62-.12,4.69.23,4.12-4.24,4.13Q115.15,153,105.73,153Z"/><path class="cls-5" d="M71.57,182.91c3.63,0,7.25-.12,10.87-.14,6.62,0,11.81-4.78,12.07-11.09.28-6.62-4.42-11.81-11.22-12.38l-.19-.08c-.81-.38-2.18.56-2.5-.68A2.78,2.78,0,0,1,82,155.59c9.22-.29,15.48,4.2,17.26,12.35a15.65,15.65,0,0,1-13.84,18.75c-5.4.28-10.8.05-16.21.11-.39,0-.91.12-1-.4-.09-.33.21-.64.44-.89A13.53,13.53,0,0,1,71.57,182.91Z"/><path class="cls-11" d="M79.09,180.31l-23.47,0a4.84,4.84,0,0,1-.87-3.81,6.17,6.17,0,0,0,3-4.1c.21-1.21,1.22-1.31,2-1.43s.5.81.63,1.24c1.06,3.51,3.93,5.6,7.13,5.1a6.22,6.22,0,0,0,5.31-6.49c-.12-3.42-2.42-5.65-6.23-6a4.2,4.2,0,0,1-.59-.14c.06-2.11.91-3,3.2-2.93,4.74.19,9.49,0,14.23.08a3.77,3.77,0,0,1,2.42.37c-.39,1.2-.68,2.44-1.78,3.25a6.93,6.93,0,0,1-2.27-.07A5.76,5.76,0,0,0,76,170a5.56,5.56,0,0,0,3.55,6.32c.5.21,1.11.22,1.35.85A11.43,11.43,0,0,1,79.09,180.31Z"/><path class="cls-5" d="M47.58,186.68c-11.5-1.24-17.88-14.57-11.37-24a17.74,17.74,0,0,0,2.52,4.8,1.62,1.62,0,0,1,.16,1.41,11.87,11.87,0,0,0,13,13.87,8.77,8.77,0,0,1,1.25.05,9.12,9.12,0,0,1,4.08,4C53.79,186.75,50.69,187,47.58,186.68Z"/><path class="cls-12" d="M66.87,143.87c1.8-5.63,4.6-10.86,4-16.86-.56-5.65,1.46-11.58-1.83-16.92a5.18,5.18,0,0,1,5.86,5c.1,5.23.21,10.48-.08,15.69-.25,4.43-2.4,8.41-4,12.47C70.25,144.74,68.35,143.69,66.87,143.87Z"/><path class="cls-10" d="M151.07,124c5.64-5.68,11.26-11.39,17-17,3-3,5.09-6.25,4.88-11.19,2.07,2.69,2,5.23,1.53,7.81a8.49,8.49,0,0,1-2.37,4.35q-9.15,9.18-18.36,18.29C151.92,126.61,151.28,125.58,151.07,124Z"/><path class="cls-5" d="M116.43,155.65c7.86-.39,15.42,7.7,14.81,15.59-.33,4.27-1.55,8-4.77,10.93-.64-.7-.25-1.46-.1-2.17,1.34-6.3.1-11.86-4.62-16.44C120.6,160.5,118.27,158.24,116.43,155.65Z"/><path class="cls-2" d="M121.75,163.21c3.46,2.35,4.85,5.88,5.53,9.79.54,3.12-.13,6.15-.81,9.17a13.6,13.6,0,0,1-9.2,4.5c-.71.23-1.16.13-.73-.72a4.81,4.81,0,0,1,1.15-1.19,13.61,13.61,0,0,0,3.73-6.1,20.81,20.81,0,0,0,.34-14.2A1.44,1.44,0,0,1,121.75,163.21Z"/><path class="cls-2" d="M79.09,180.31c.45-1.06.23-2.5,1.69-3,.55-.55,1.29-.44,2-.6a5.65,5.65,0,0,0,4.4-4.26,5.55,5.55,0,0,0-1.6-5.54c-.51-.54-1.3-.86-1.41-1.73.66-.95.45-2.39,1.71-3,4.55,1.81,7,6,6.19,10.58s-4.69,7.59-9.6,7.61C81.32,180.39,80.2,180.33,79.09,180.31Z"/><path class="cls-2" d="M69.82,146.46c-2.13,5.88-4.11,11.61-6.28,17.26a8.87,8.87,0,0,1-7.87,5.65,13.35,13.35,0,0,0,4.41-6.68c1.56-4.47,3.19-8.92,4.78-13.38C66,146.09,66,146.08,69.82,146.46Z"/><path class="cls-13" d="M47.58,186.68h9.3c-1.44-1.49-2.89-2.42-3.79-3.85l18.48.08c-.45,1.58-1.92,2.28-3.23,3.78H85.43c-.46.46-1.05.3-1.58.3H49.39A2.62,2.62,0,0,1,47.58,186.68Z"/><path class="cls-2" d="M54.75,176.52a7.89,7.89,0,0,1,.87,3.81c-2,0-4,.13-6,0A9.19,9.19,0,0,1,41.26,170c1.85,1.17,4.05,1.31,5,4.07C47.32,177.3,51.1,178.09,54.75,176.52Z"/><path class="cls-10" d="M75.25,153c-1.18,0-2.37-.06-3.55,0-1.5.09-1.58-.49-1.14-1.75,1.73-5,1.7-5,7-5,3.23,0,2.85-.38,2.87,2.7,0,4,0,4-4.08,4Z"/><path class="cls-14" d="M151.07,124c.7.95,1.33,2,2.63,2.23-3.78,3.74-7.06,8-12,10.93-.41-2.44-.31-4.13,1.7-5.73A101,101,0,0,0,151.07,124Z"/><path class="cls-15" d="M82,155.59c-.09.18-.2.36-.27.54-1,2.55-1,2.55,1.55,3.17-4.79,0-9.59,0-14.38,0-.81,0-1.08-.15-.85-1.08.48-1.88,1.24-2.94,3.52-2.77C75,155.73,78.53,155.57,82,155.59Z"/><path class="cls-16" d="M66.59,174.92a3.83,3.83,0,1,1,3.93-3.77A3.86,3.86,0,0,1,66.59,174.92Z"/><path class="cls-17" d="M121.42,178.66c-.07,3.17-2,5.27-4.16,7.22-.35.31-1,.54,0,.79l-3.38.79c-.45.19-.51,0-.43-.4A21.16,21.16,0,0,0,121.42,178.66Z"/><path class="cls-10" d="M121.75,163.21c0,.42,0,.83,0,1.25a20.2,20.2,0,0,0-7-8.56,1.68,1.68,0,0,1,1.71-.25A13.31,13.31,0,0,1,121.75,163.21Z"/><path class="cls-18" d="M50.55,172c1.11,0,2.22-.05,3.34,0,.43,0,1.06-.28,1.25.37s-.28.92-.59,1.27a3.51,3.51,0,0,1-3.58,1.2A3.15,3.15,0,0,1,50.55,172Z"/><path class="cls-19" d="M50.55,172c.71.85.37,1.86.42,2.82a4.19,4.19,0,0,1-1-.2c-.94-.46-2.11-1.17-1.89-2.14C48.37,171.35,49.71,172.24,50.55,172Z"/><path class="cls-20" d="M113.46,187.06l.43.4c-.55.53-1.18.45-2.2.29Z"/><path class="cls-21" d="M92.54,187.1l.41.4a1.32,1.32,0,0,1-1.29.36C91.65,187.2,92.19,187.26,92.54,187.1Z"/><path class="cls-5" d="M69.86,32.84a24.79,24.79,0,0,1,11.49-2.62c8.58,0,17.16-.08,25.73,0A30.1,30.1,0,0,1,136,53.87c2.89,13.71-4.11,27.87-16.54,33.5-.32.14-.65.22-1,.34a42.93,42.93,0,0,1-9.09,1c-5.92.17-11.85.14-17.77,0-11.07-.22-20.31-4.26-27.12-13.27a10.31,10.31,0,0,1-2.41-6.93c.13-2.85-.07-5.71.06-8.56.11-2.26-.52-4-2.62-5-.51-.44-.24-1.12-.51-1.64L59,52.9c-.22-3.85,1.33-7.22,3-10.51C63.9,38.65,66.16,35.14,69.86,32.84Z"/><path class="cls-2" d="M59.42,54.51c3.22,1.3,3.32,1.45,3.32,4.91a55.81,55.81,0,0,1-.06,7.32c-.57,4.31,1.31,7.51,4,10.47A31.32,31.32,0,0,0,88,87.76c7.52.59,15,.28,22.55.24,2.62,0,5.27-.27,7.91-.29A25.18,25.18,0,0,1,107,90.27c-8.52,0-17,.06-25.56,0-12.35-.09-24.18-8.48-27.66-19.64,2.54,0,4.42-1,5.26-3.48.32-3.46,0-6.93.15-10.4C59.21,56,59,55.21,59.42,54.51Z"/><path class="cls-2" d="M69.86,32.84A39.9,39.9,0,0,0,61.69,44,60.46,60.46,0,0,0,59,52.9,5,5,0,0,0,53.56,50C56.87,42,62,36.09,69.86,32.84Z"/><path class="cls-22" d="M53.15,60.93c0-2.5.08-5,0-7.5-.05-1,.22-1.19,1.1-1.18,1.5,0,2.5.76,2.54,2.2.1,3.89.07,7.79,0,11.68a2,2,0,0,1-1.6,2c-1.19.23-2.34.6-2-1.54a32.91,32.91,0,0,0,.06-5.62Z"/><path class="cls-23" d="M38.61,60.3a2.14,2.14,0,0,1-2.19,2.11,2.17,2.17,0,1,1,.12-4.33A2.12,2.12,0,0,1,38.61,60.3Z"/><path class="cls-2" d="M59.42,54.51c0,3.55,0,7.09-.05,10.64,0,.67.21,1.4-.34,2V53.32C59.44,53.63,59.39,54.08,59.42,54.51Z"/><path class="cls-23" d="M150.82,58c1.2.2,2.13.77,2.18,2.11a2.14,2.14,0,1,1-4.28.13C148.7,59,149.57,58.27,150.82,58Z"/><path class="cls-3" d="M104.3,110.48a2.15,2.15,0,0,1-2.35-2.17,2.07,2.07,0,0,1,2.11-2.35,2.1,2.1,0,0,1,2.42,2.25A2.13,2.13,0,0,1,104.3,110.48Z"/><path class="cls-24" d="M98,105.85c1.34.34,2.32,1.09,2.26,2.43a2.12,2.12,0,0,1-2.32,2.18,2,2,0,0,1-2.12-2.32C95.85,106.65,96.79,106.12,98,105.85Z"/><path class="cls-3" d="M52.48,128.84a6.63,6.63,0,0,1-6.73-6.74,6.77,6.77,0,0,1,6.93-6.81,6.7,6.7,0,0,1,6.7,7A6.62,6.62,0,0,1,52.48,128.84Z"/><path class="cls-25" d="M143.15,169.85H148c.77,0,1.45.22,1.46,1.11a1.27,1.27,0,0,1-1.36,1.31q-4.91.06-9.81,0c-.71,0-1.4-.35-1.34-1.27s.66-1.14,1.44-1.14Z"/><path class="cls-26" d="M140.45,180.7h-3.74c-.84,0-1.55-.23-1.53-1.25s.63-1.16,1.41-1.17h7.68c.78,0,1.4.26,1.44,1.14s-.67,1.27-1.52,1.28C143,180.71,141.7,180.7,140.45,180.7Z"/><path class="cls-26" d="M140.27,163.83c-1.25,0-2.5,0-3.74,0-.74,0-1.43-.32-1.43-1.19s.61-1.17,1.41-1.17h7.89c.72,0,1.24.3,1.31,1,.09.9-.55,1.27-1.29,1.31-1.38.07-2.77,0-4.15,0Z"/><path class="cls-25" d="M111.37,169.84h4.82c.77,0,1.41.23,1.46,1.13s-.61,1.28-1.34,1.29q-4.92.06-9.84,0c-.72,0-1.41-.36-1.37-1.26s.68-1.15,1.46-1.15Z"/><path class="cls-26" d="M108.62,178.27c1.32,0,2.65,0,4,0,.77,0,1.42.3,1.41,1.17a1.21,1.21,0,0,1-1.38,1.24h-7.73c-.85,0-1.55-.28-1.49-1.3s.69-1.12,1.46-1.12Z"/><path class="cls-26" d="M108.72,161.46c1.24,0,2.49,0,3.74,0,.77,0,1.46.22,1.55,1a1.18,1.18,0,0,1-1.3,1.31q-4,.06-8.1,0a1.1,1.1,0,0,1-1.22-1.15c0-.89.58-1.18,1.38-1.18Z"/><path class="cls-3" d="M84.13,165.2a7.61,7.61,0,0,1,3.49,4.24c1.15,4.3-2,8-6.84,7.89-5.18-1.51-7.15-6.2-4.14-10.1C78.58,164.72,81.23,164.38,84.13,165.2Z"/><path class="cls-1" d="M98.82,62.2c-6.07,0-12.15,0-18.23,0a11.35,11.35,0,0,1-.41-22.7q18.75-.21,37.51,0a11.35,11.35,0,0,1-.43,22.7C111.12,62.22,105,62.2,98.82,62.2Z"/><path class="cls-1" d="M100,64.57c4.25,0,8.5,0,12.76,0,2.47,0,3.13.87,2.62,3.24a15.72,15.72,0,0,1-30.6.81c-.84-3.2-.2-4,3.09-4Z"/><path class="cls-27" d="M111.74,125.14c-1.19-.15-1.89-1-1.24-1.85a47.71,47.71,0,0,1,6.86-7,1.17,1.17,0,0,1,1.68.33,1.14,1.14,0,0,1,.07,1.54c-2.17,2.26-4.4,4.47-6.63,6.68A1.91,1.91,0,0,1,111.74,125.14Z"/><path class="cls-28" d="M119.37,123.78c0,.93-3.54,4.53-4.47,4.57a1.32,1.32,0,0,1-1.21-.66,1.12,1.12,0,0,1,.13-1.51c1.11-1.14,2.23-2.26,3.36-3.38a1.25,1.25,0,0,1,1.53-.2A1.17,1.17,0,0,1,119.37,123.78Z"/><path class="cls-29" d="M119.39,139.06a1.33,1.33,0,0,1-2.66,0,1.33,1.33,0,1,1,2.66,0Z"/><path class="cls-27" d="M57.05,122.1a4.6,4.6,0,0,1-4.53,4.5A4.67,4.67,0,0,1,48.07,122a4.73,4.73,0,0,1,4.46-4.42A4.63,4.63,0,0,1,57.05,122.1Z"/><path class="cls-27" d="M85.43,171.15a3.74,3.74,0,0,1-3.87,3.79,3.87,3.87,0,0,1-3.9-3.8,3.92,3.92,0,0,1,4-3.93A3.81,3.81,0,0,1,85.43,171.15Z"/><path class="cls-30" d="M99,41.82h17.81c5.39,0,9.54,4,9.52,9A9.24,9.24,0,0,1,116.79,60Q99,60,81.18,60c-5.49,0-9.68-4.06-9.62-9.21s4.19-8.92,9.62-8.93Z"/><path class="cls-27" d="M99.54,77.59a12.13,12.13,0,0,1-8.88-4c-.91-1-.7-1.55.33-2.27a7.77,7.77,0,0,1,11.51,3.55c.64,1.64.36,2.49-1.53,2.54A9.84,9.84,0,0,0,99.54,77.59Z"/><path class="cls-1" d="M92.29,50.92c0,.63,0,1.26,0,1.89,0,3.51-.63,4.12-4.19,4.1-3,0-3.89-.83-3.92-3.82,0-1.74-.08-3.49,0-5.23.12-2.16,1-2.94,3.19-3,.7,0,1.4,0,2.1,0a2.51,2.51,0,0,1,2.79,2.69c0,1.11,0,2.23,0,3.35Z"/><path class="cls-1" d="M119.66,51c0,.42,0,.83,0,1.25.4,5-1.86,4.95-5.85,4.59a2.39,2.39,0,0,1-2.21-2.6c-.07-2.22-.09-4.44,0-6.66a2.55,2.55,0,0,1,3-2.66c.7,0,1.39,0,2.09,0,2,.06,2.87.93,3,2.94C119.7,48.86,119.66,49.91,119.66,51Z"/></svg>