<svg id="Layer_1" data-name="Layer 1" xmlns="http://www.w3.org/2000/svg" width="70" height="70" viewBox="0 0 70 70"><defs><style>.cls-1{fill:#343434;}.cls-2{fill:#dadada;}.cls-3{fill:#d9d9d9;}.cls-4{fill:#fefefe;}.cls-5{fill:#ececec;}.cls-6{fill:#333;}.cls-7{fill:#def4e2;}.cls-8{fill:#fdfdfd;}.cls-9{fill:none;stroke:#000;stroke-miterlimit:10;}</style></defs><title>Artboard 1_1</title><path class="cls-1" d="M64.52,33.62c1.69,1,2.09,2.18,1.21,3.49-.31.46-.83.55-1.21.86A2.34,2.34,0,0,1,62,36.88c-.09-.25-.21-.43-.51-.36s-.2.38-.21.58c0,.51,0,1,0,1.53a2.31,2.31,0,0,1-2.64,2.19.66.66,0,0,1-.58-.56c-.11-.33.27-.45.48-.54,1.61-.64,1.61-.63,1.61-2.29,0-1.29,0-2.58,0-3.87,0-1-.33-1.6-1.4-1.65-.35,0-.74-.18-.7-.57s.32-.56.77-.57A2.25,2.25,0,0,1,61.25,33c0,.51,0,1,0,1.53,0,.23-.19.62.2.68s.42-.29.52-.54a1.74,1.74,0,0,1,1.53-1.1A1.83,1.83,0,0,1,64.52,33.62Z"/><path class="cls-2" d="M59.87,24.23c-.42-.1-1.17.25-1.18-.52s.66-.71,1.22-.71,1.25-.07,1.21.68S60.38,24.19,59.87,24.23Z"/><path class="cls-3" d="M58.08,20.51a.46.46,0,0,1-.43-.37A1.07,1.07,0,0,1,58,19c.35-.35.69-.65,1.23-.51a.49.49,0,0,1,.4.4C59.69,19.3,58.46,20.55,58.08,20.51Z"/><path class="cls-3" d="M55,18.9c-.28.44-.62.59-1.06.21a5,5,0,0,1,0-2c.43-.38.77-.23,1,.2A3.29,3.29,0,0,1,55,18.9Z"/><path class="cls-4" d="M48.84,19.21v2A2.4,2.4,0,0,1,48.84,19.21Z"/><path class="cls-4" d="M49.89,21V19.42A1.57,1.57,0,0,1,49.89,21Z"/><path class="cls-4" d="M26,20.24a2.33,2.33,0,0,1-1,.15C25.27,20.12,25.65,20.27,26,20.24Z"/><path class="cls-4" d="M41.29,20.38a2.14,2.14,0,0,1-1-.15C40.6,20.27,41,20.12,41.29,20.38Z"/><path class="cls-4" d="M63.51,38h1A.77.77,0,0,1,63.51,38Z"/><path class="cls-4" d="M64.52,33.62h-1A.77.77,0,0,1,64.52,33.62Z"/><path class="cls-5" d="M63.94,34.71c.59.1,1,.38,1.07,1a1,1,0,1,1-2.09.06A1.08,1.08,0,0,1,63.94,34.71Z"/><path class="cls-1" d="M5.36,35.39c-1.69,1-2.09,2.18-1.21,3.5.31.45.83.55,1.21.85a1.74,1.74,0,0,0,1,0,1.73,1.73,0,0,0,1.53-1.1c.09-.24.21-.43.51-.36s.2.38.21.59c0,.5,0,1,0,1.53a2.31,2.31,0,0,0,2.64,2.18.66.66,0,0,0,.58-.56c.11-.33-.27-.45-.49-.54-1.6-.64-1.6-.63-1.6-2.29,0-1.29,0-2.58,0-3.87,0-1,.33-1.6,1.4-1.65.34,0,.73-.18.7-.57s-.32-.56-.77-.56a2.24,2.24,0,0,0-2.45,2.26c0,.51,0,1,0,1.53,0,.24.19.62-.2.68s-.42-.29-.52-.54a1.74,1.74,0,0,0-1.53-1.1A1.83,1.83,0,0,0,5.36,35.39Z"/><path class="cls-4" d="M6.37,39.75h-1A.77.77,0,0,0,6.37,39.75Z"/><path class="cls-4" d="M5.36,35.39h1A.77.77,0,0,0,5.36,35.39Z"/><path class="cls-5" d="M5.94,36.48c-.59.1-1,.38-1.07,1a1,1,0,0,0,1.06,1.11,1,1,0,0,0,1-1C7,37,6.54,36.61,5.94,36.48Z"/><path class="cls-6" d="M35.66,37H26.78A5.53,5.53,0,0,1,26.57,26q9.15-.11,18.29,0A5.53,5.53,0,0,1,44.65,37Z"/><path class="cls-6" d="M35.94,40.58h6.22c1.21,0,1.53.42,1.28,1.58a7.66,7.66,0,0,1-14.91.39c-.42-1.55-.1-2,1.5-2Z"/><path class="cls-7" d="M35.74,27.08h8.68a4.43,4.43,0,1,1,0,8.84c-5.79,0-11.57,0-17.36,0a4.43,4.43,0,1,1,0-8.84Z"/><path class="cls-8" d="M38,47.22a5.86,5.86,0,0,1-4.72-.51c-.58-.33-.57-.61-.2-1.1a3.79,3.79,0,0,1,5.87-.12c.55.67.55,1.1-.32,1.41A4.54,4.54,0,0,0,38,47.22Z"/><path class="cls-6" d="M29,31.52v.92c0,1.71-.32,2-2.05,2-1.48,0-1.9-.41-1.91-1.86,0-.85,0-1.71,0-2.56.06-1.05.5-1.43,1.56-1.45h1A1.23,1.23,0,0,1,29,29.89c0,.54,0,1.08,0,1.63Z"/><path class="cls-6" d="M45.82,31.53c0,.21,0,.41,0,.61.2,2.43-.9,2.41-2.85,2.24a1.17,1.17,0,0,1-1.08-1.27c0-1.08,0-2.16,0-3.25a1.23,1.23,0,0,1,1.46-1.29c.34,0,.68,0,1,0,1,0,1.4.46,1.44,1.44C45.84,30.52,45.82,31,45.82,31.53Z"/><rect class="cls-9" x="13.89" y="21.64" width="42.77" height="29.52" rx="14.76" ry="14.76"/></svg>